<svg width="64" height="39" viewBox="0 0 64 39" fill="none" xmlns="http://www.w3.org/2000/svg">
<path d="M30.828 0.346661C31.5662 0.0484204 31.9352 -0.1007 32.1966 0.0755792C32.4579 0.251858 32.4579 0.649929 32.4579 1.44607V10.7241C32.4579 11.5202 32.4579 11.9183 32.7193 12.0946C32.9806 12.2709 33.3497 12.1218 34.0879 11.8235L62.3707 0.396518C63.1089 0.098277 63.4779 -0.0508433 63.7393 0.125436C64.0006 0.301715 64.0006 0.699787 64.0006 1.49593V24.6157C64.0006 24.6192 63.9985 24.6223 63.9953 24.6236C63.9921 24.6249 63.99 24.628 63.99 24.6315V37.3513C63.99 37.9785 63.4816 38.4868 62.8545 38.4868C62.2274 38.4868 61.719 37.9785 61.719 37.3513V27.3013C61.719 26.5051 61.719 26.107 61.4576 25.9308C61.1963 25.7545 60.8272 25.9036 60.089 26.2019L33.3564 37.0026C32.6182 37.3008 32.2491 37.4499 31.9878 37.2736C31.7264 37.0974 31.7264 36.6993 31.7264 35.9032V26.6251C31.7264 25.829 31.7264 25.4309 31.4651 25.2546C31.2037 25.0783 30.8346 25.2275 30.0965 25.5257L1.62995 37.0269C0.891774 37.3252 0.522689 37.4743 0.261344 37.298C0 37.1217 0 36.7237 0 35.9275V13.6018C0 13.2143 0 13.0206 0.10136 12.8703C0.202719 12.7201 0.382334 12.6475 0.741564 12.5024L30.828 0.346661Z" fill="#142928"/>
</svg>
