<?xml version="1.0" standalone="no"?>
<!DOCTYPE svg PUBLIC "-//W3C//DTD SVG 20010904//EN"
 "http://www.w3.org/TR/2001/REC-SVG-20010904/DTD/svg10.dtd">
<svg version="1.0" xmlns="http://www.w3.org/2000/svg"
 width="1000.000000pt" height="1000.000000pt" viewBox="0 0 1000.000000 1000.000000"
 preserveAspectRatio="xMidYMid meet">
<metadata>
Created by potrace 1.14, written by Peter Selinger 2001-2017
</metadata>
<g transform="translate(0.000000,1000.000000) scale(0.100000,-0.100000)"
fill="#000000" stroke="none">
<path d="M759 9996 c-2 -2 -24 -7 -49 -11 -107 -15 -249 -77 -355 -154 -64
-46 -159 -142 -193 -195 -15 -22 -29 -43 -33 -46 -15 -13 -80 -164 -101 -235
l-23 -80 -2 -4255 c-2 -4139 -2 -4257 17 -4330 10 -41 21 -86 25 -100 10 -37
83 -178 118 -229 91 -133 254 -253 427 -314 138 -50 -149 -47 4395 -46 4581 1
4299 -3 4450 54 152 57 312 179 396 300 19 28 37 52 40 55 16 13 80 163 101
235 l23 80 2 4245 c3 4582 6 4300 -48 4454 -57 166 -185 329 -339 431 -86 57
-159 89 -272 119 l-93 25 -4241 1 c-2332 0 -4243 -2 -4245 -4z"/>
</g>
</svg>
