<?xml version="1.0" encoding="utf-8"?><svg viewBox="0 0 80 80" xmlns="http://www.w3.org/2000/svg" xmlns:xlink="http://www.w3.org/1999/xlink"><style>:root>svg{display:none}:root>svg:target{display:block}</style><svg viewBox="0 0 52 52" id="arrow-type-1" xmlns="http://www.w3.org/2000/svg"><path fill-rule="evenodd" clip-rule="evenodd" d="M24.83 5.586c3.45 11.657 14.18 20.158 26.884 20.163v-1.974C39.905 23.769 29.918 15.858 26.715 5l-1.886.586z"/><path fill-rule="evenodd" clip-rule="evenodd" d="M24.499 45.65C27.545 33.369 38.58 24.27 51.727 24.27h.001v1.975h-.001c-12.251 0-22.544 8.508-25.339 19.99l-1.89-.586z"/><path fill-rule="evenodd" clip-rule="evenodd" d="M0 24.02h51.715v1.974H0v-1.975z"/></svg><svg viewBox="0 0 38 38" id="arrow-type-2" xmlns="http://www.w3.org/2000/svg"><path fill-rule="evenodd" clip-rule="evenodd" d="M17.904 4.684c2.226 8.97 10.285 15.617 19.887 15.62v-2.3C29.231 18.002 22.038 12.042 20.104 4l-2.2.684z"/><path fill-rule="evenodd" clip-rule="evenodd" d="M17.903 34.015c2.226-8.974 10.29-15.622 19.897-15.622h.001v2.3c-8.565 0-15.764 5.962-17.697 14.007l-2.2-.685z"/><path fill-rule="evenodd" clip-rule="evenodd" d="M0 18.23h37.792v2.3H0v-2.3z"/></svg><svg viewBox="0 0 80 80" id="arrow-type-3" xmlns="http://www.w3.org/2000/svg"><path fill-rule="evenodd" clip-rule="evenodd" d="M37.22 10.904C41.85 29.553 58.604 43.37 78.567 43.378v-6.4C61.506 36.97 47.158 25.064 43.345 9l-6.124 1.904z" fill="#142928"/><path fill-rule="evenodd" clip-rule="evenodd" d="M37.22 69.611c4.628-18.657 21.393-32.478 41.365-32.478h.002v6.4h-.002c-17.07 0-31.428 11.91-35.241 27.982l-6.124-1.904z" fill="#142928"/><path fill-rule="evenodd" clip-rule="evenodd" d="M0 37.05h78.567v6.4H0v-6.4z" fill="#142928"/></svg></svg>